<svg width="40" height="41" viewBox="0 0 40 41" fill="none" xmlns="http://www.w3.org/2000/svg">
<path d="M34.8256 27.1335V13.8666C34.825 13.2849 34.6715 12.7137 34.3804 12.2101C34.0893 11.7066 33.6709 11.2884 33.1672 10.9976L21.5587 4.36416C21.0545 4.07305 20.4826 3.9198 19.9003 3.9198C19.3181 3.9198 18.7462 4.07305 18.242 4.36416L6.63346 10.9976C6.12975 11.2884 5.71138 11.7066 5.4203 12.2101C5.12923 12.7137 4.97569 13.2849 4.9751 13.8666V27.1335C4.97569 27.7151 5.12923 28.2863 5.4203 28.7899C5.71138 29.2934 6.12975 29.7116 6.63346 30.0024L18.242 36.6359C18.7462 36.927 19.3181 37.0802 19.9003 37.0802C20.4826 37.0802 21.0545 36.927 21.5587 36.6359L33.1672 30.0024C33.6709 29.7116 34.0893 29.2934 34.3804 28.7899C34.6715 28.2863 34.825 27.7151 34.8256 27.1335Z" stroke="white" stroke-width="3.28356" stroke-linecap="round" stroke-linejoin="round"/>
<path d="M12.4377 7.5813L19.9004 11.893L27.363 7.5813" stroke="white" stroke-width="3.28356" stroke-linecap="round" stroke-linejoin="round"/>
<path d="M12.4377 33.4186V24.8117L4.9751 20.5" stroke="white" stroke-width="3.28356" stroke-linecap="round" stroke-linejoin="round"/>
<path d="M34.8257 20.5L27.363 24.8117V33.4186" stroke="white" stroke-width="3.28356" stroke-linecap="round" stroke-linejoin="round"/>
<path d="M5.42285 12.1419L19.9003 20.5166L34.3778 12.1419" stroke="white" stroke-width="3.28356" stroke-linecap="round" stroke-linejoin="round"/>
<path d="M19.9004 37.2163V20.5" stroke="white" stroke-width="3.28356" stroke-linecap="round" stroke-linejoin="round"/>
</svg>
